<?xml version="1.0" standalone="no"?>
<!DOCTYPE svg PUBLIC "-//W3C//DTD SVG 20010904//EN"
 "http://www.w3.org/TR/2001/REC-SVG-20010904/DTD/svg10.dtd">
<svg version="1.0" xmlns="http://www.w3.org/2000/svg"
 width="603.000000pt" height="603.000000pt" viewBox="0 0 603.000000 603.000000"
 preserveAspectRatio="xMidYMid meet">
<metadata>
Created by potrace 1.11, written by Peter Selinger 2001-2013
</metadata>
<g transform="translate(0.000000,603.000000) scale(0.100000,-0.100000)"
fill="#000000" stroke="none">
<path d="M1967 5534 c-1 -1 -38 -4 -82 -8 -82 -6 -121 -17 -217 -59 -163 -72
-268 -174 -370 -357 -14 -25 -51 -90 -83 -145 -69 -119 -257 -444 -349 -605
-36 -63 -70 -122 -76 -130 -6 -8 -13 -22 -17 -30 -4 -8 -23 -42 -43 -75 -20
-33 -40 -67 -44 -75 -4 -8 -12 -24 -19 -35 -7 -11 -28 -47 -47 -80 -19 -33
-40 -69 -47 -80 -7 -11 -15 -27 -20 -35 -4 -8 -26 -47 -50 -86 -24 -39 -43
-77 -43 -83 0 -6 -4 -11 -8 -11 -4 0 -15 -15 -23 -32 -9 -18 -54 -99 -101
-179 -71 -121 -114 -212 -124 -264 -25 -128 -27 -270 -5 -344 6 -18 10 -36 9
-40 -1 -3 2 -15 6 -26 4 -11 13 -33 19 -50 6 -16 44 -88 85 -160 90 -156 106
-184 131 -229 24 -41 61 -104 79 -131 6 -11 15 -27 19 -35 4 -8 24 -43 45 -78
21 -34 38 -65 38 -67 0 -3 11 -22 23 -43 25 -39 242 -414 285 -492 14 -25 34
-57 44 -72 11 -16 16 -28 11 -28 -4 0 -3 -4 2 -8 9 -6 100 -158 192 -322 11
-19 46 -80 78 -135 32 -55 63 -109 69 -120 68 -124 225 -258 361 -308 33 -12
63 -21 68 -19 4 1 7 -2 7 -6 0 -4 8 -8 18 -8 9 -1 33 -5 52 -9 19 -5 541 -9
1160 -10 1024 -1 1133 0 1210 16 190 38 365 152 461 299 32 50 48 76 107 180
10 19 68 118 127 220 59 102 117 203 129 225 13 22 73 126 133 230 182 312
213 367 213 376 0 5 5 9 10 9 6 0 10 4 10 10 0 5 27 55 60 111 33 55 60 103
60 105 0 2 25 44 55 94 30 50 55 93 55 95 0 2 24 44 53 92 63 103 135 247 143
283 20 99 25 137 25 192 0 35 0 74 0 88 0 14 -5 46 -11 71 -6 26 -12 53 -14
60 -6 36 -39 119 -47 119 -5 0 -9 4 -9 10 0 8 -33 68 -132 238 -15 26 -40 69
-55 96 -16 27 -33 56 -38 65 -6 9 -37 63 -70 121 -33 58 -65 114 -72 125 -7
11 -18 32 -25 48 -7 15 -16 27 -20 27 -4 0 -8 4 -8 10 0 5 -25 50 -55 100 -30
50 -55 92 -55 94 0 3 -149 265 -180 316 -8 14 -180 309 -228 394 -13 23 -37
62 -53 89 -16 26 -29 49 -29 51 0 2 -18 35 -40 72 -43 75 -133 185 -165 203
-11 6 -38 25 -60 41 -79 58 -217 114 -310 125 -40 5 -2202 13 -2208 9z m2074
-327 c143 -16 367 -159 424 -271 9 -17 25 -44 35 -61 11 -16 24 -39 30 -50 5
-11 23 -42 40 -70 16 -27 33 -57 37 -65 3 -8 16 -31 28 -50 12 -19 33 -55 47
-80 14 -25 58 -101 98 -170 161 -278 303 -524 322 -558 21 -38 76 -133 192
-330 36 -62 66 -115 66 -118 0 -3 15 -28 33 -57 85 -135 102 -195 102 -352 0
-128 -17 -201 -64 -279 -10 -17 -30 -51 -43 -76 -26 -46 -190 -332 -207 -360
-13 -21 -190 -328 -214 -370 -22 -40 -110 -191 -174 -298 -24 -40 -43 -75 -43
-77 0 -2 -25 -45 -55 -95 -30 -50 -55 -93 -55 -95 0 -2 -24 -44 -54 -93 -29
-49 -57 -99 -60 -110 -4 -12 -12 -22 -17 -22 -5 0 -9 -5 -9 -10 0 -21 -80
-136 -117 -169 -42 -38 -168 -122 -186 -125 -7 -1 -16 -4 -22 -8 -5 -3 -35
-14 -65 -24 -51 -17 -122 -18 -1045 -21 -658 -2 -1015 1 -1065 8 -77 11 -223
67 -270 104 -28 23 -140 135 -155 156 -5 8 -19 32 -30 54 -11 22 -26 46 -32
53 -7 7 -13 20 -13 28 0 8 -3 14 -7 14 -5 0 -13 10 -19 23 -20 43 -59 111 -71
125 -7 7 -13 18 -13 23 0 5 -16 33 -35 64 -20 30 -39 63 -42 73 -4 9 -11 22
-15 27 -5 6 -62 102 -127 215 -64 113 -186 324 -271 470 -84 146 -164 285
-177 308 -14 24 -38 65 -53 90 -67 108 -120 229 -127 288 -21 159 0 294 61
398 13 23 33 57 43 76 11 19 35 60 52 90 18 30 36 62 41 70 89 152 110 191
110 200 0 5 4 10 10 10 5 0 12 11 16 25 3 14 10 25 15 25 5 0 9 4 9 9 0 5 31
62 69 127 38 66 132 229 210 364 77 135 144 250 148 255 5 6 14 21 20 35 7 14
27 50 45 81 18 31 69 119 113 195 96 166 159 236 270 299 85 48 205 90 236 82
11 -3 21 -2 23 1 5 8 1938 7 2007 -1z"/>
<path d="M2997 4964 c-1 -1 -23 -5 -50 -8 -26 -4 -60 -12 -75 -18 -44 -17 -76
-33 -87 -41 -5 -4 -29 -21 -52 -37 -82 -57 -164 -196 -179 -302 -22 -157 22
-298 129 -414 40 -43 122 -103 149 -108 7 -2 26 -8 41 -14 81 -34 244 -33 326
0 14 6 32 12 39 14 8 1 22 10 31 18 10 9 22 16 28 16 17 0 118 102 148 149 52
84 73 164 70 270 -6 222 -130 387 -342 456 -43 13 -167 27 -176 19z"/>
<path d="M3018 3932 c-34 -2 -48 -7 -48 -18 -1 -7 -1 -68 -1 -134 0 -66 0
-136 1 -155 l0 -35 73 0 72 0 0 167 0 167 -25 5 c-14 3 -46 5 -72 3z"/>
<path d="M2924 3528 c-3 -5 -11 -7 -17 -5 -7 2 -36 -4 -66 -15 -157 -53 -294
-172 -362 -315 -22 -47 -42 -99 -45 -115 -2 -17 -6 -40 -10 -51 -13 -42 -12
-153 3 -227 23 -116 83 -230 168 -315 39 -40 81 -76 93 -79 12 -4 22 -11 22
-15 0 -11 106 -56 190 -79 31 -9 251 -9 256 -1 3 5 9 7 13 5 16 -10 165 55
225 98 45 32 121 110 156 161 30 44 84 155 75 155 -2 0 3 19 11 42 16 45 21
176 11 245 -12 72 -53 178 -92 237 -90 135 -243 243 -388 271 -53 11 -237 13
-243 3z"/>
<path d="M2265 2584 c-72 -47 -136 -88 -143 -93 -11 -6 -9 -16 10 -48 43 -73
55 -85 77 -78 12 3 21 11 21 16 0 5 4 9 10 9 18 0 230 142 230 155 0 10 -58
105 -74 122 -1 1 -60 -37 -131 -83z"/>
<path d="M3648 2632 c-30 -36 -68 -103 -64 -111 5 -7 173 -124 224 -156 9 -5
22 -16 30 -22 19 -18 18 -18 49 30 16 23 34 48 41 56 7 7 11 18 9 25 -3 11
-133 105 -229 165 -43 27 -47 28 -60 13z"/>
<path d="M1615 2632 c-2 -2 -18 -6 -36 -9 -85 -13 -195 -76 -258 -149 -27 -30
-94 -138 -97 -154 0 -3 -6 -23 -12 -45 -88 -306 163 -622 485 -610 181 7 342
110 417 268 19 39 38 86 41 102 5 26 10 190 5 198 -1 1 -4 15 -6 30 -11 65
-68 162 -133 227 -83 82 -163 124 -259 136 -58 7 -143 10 -147 6z"/>
<path d="M4224 2571 c-135 -38 -244 -130 -306 -258 -21 -45 -37 -87 -33 -93 3
-5 2 -10 -3 -10 -13 0 -13 -181 0 -227 38 -141 134 -257 263 -318 77 -36 100
-40 225 -39 93 0 112 4 170 29 143 64 225 153 275 303 28 85 27 229 -2 307
-55 143 -160 247 -300 297 -79 28 -208 32 -289 9z"/>
</g>
</svg>
